<?xml version="1.0" encoding="UTF-8" standalone="no"?>
<!-- Generator: Adobe Illustrator 11.0, SVG Export Plug-In  -->

<svg
   width="32"
   height="32"
   viewBox="-0.7 -0.596 58.514286 50.057142"
   xml:space="preserve"
   id="svg2"
   sodipodi:version="0.32"
   inkscape:version="1.1 (c68e22c387, 2021-05-23)"
   sodipodi:docname="mac_command_key.svg"
   inkscape:output_extension="org.inkscape.output.svg.inkscape"
   version="1.0"
   inkscape:export-filename="C:\Users\Hagen\github\shared-internet\End user equipment\images\icons\mac_command_key.png"
   inkscape:export-xdpi="96"
   inkscape:export-ydpi="96"
   xmlns:inkscape="http://www.inkscape.org/namespaces/inkscape"
   xmlns:sodipodi="http://sodipodi.sourceforge.net/DTD/sodipodi-0.dtd"
   xmlns="http://www.w3.org/2000/svg"
   xmlns:svg="http://www.w3.org/2000/svg"
   xmlns:rdf="http://www.w3.org/1999/02/22-rdf-syntax-ns#"
   xmlns:cc="http://creativecommons.org/ns#"
   xmlns:dc="http://purl.org/dc/elements/1.1/"><metadata
   id="metadata29"><rdf:RDF><cc:Work
       rdf:about=""><dc:format>image/svg+xml</dc:format><dc:type
         rdf:resource="http://purl.org/dc/dcmitype/StillImage" /></cc:Work></rdf:RDF></metadata><sodipodi:namedview
   inkscape:window-height="579"
   inkscape:window-width="1139"
   inkscape:pageshadow="2"
   inkscape:pageopacity="0.0"
   guidetolerance="10.0"
   gridtolerance="10.0"
   objecttolerance="10.0"
   borderopacity="1.0"
   bordercolor="#666666"
   pagecolor="#ffffff"
   id="base"
   inkscape:zoom="0.8630137"
   inkscape:cx="247.96825"
   inkscape:cy="168.59524"
   inkscape:window-x="110"
   inkscape:window-y="138"
   inkscape:current-layer="svg2"
   width="280px"
   height="280px"
   inkscape:pagecheckerboard="0"
   showgrid="false"
   inkscape:window-maximized="0" />
	<defs
   id="defs4">
	</defs>
	
<g
   transform="matrix(0.2223525,0,0,0.2223525,-28.196111,-24.123879)"
   id="g2202">
		 
		
		
		<rect
   x="123.66"
   y="86.795998"
   width="263.16"
   height="263.16"
   id="rect2204"
   style="fill:#ffffff" /> 
		<path
   d="m 324.036,198.828 h -23.184 v 38.736 h 23.184 c 27.432,0 49.536,22.104 49.536,49.392 0,27.504 -22.104,49.536 -49.536,49.536 -27.36,0 -49.464,-22.032 -49.464,-49.536 v 0 -23.112 H 235.98 v 23.112 c 0,27.504 -22.176,49.536 -49.464,49.536 -27.432,0 -49.608,-22.032 -49.608,-49.536 0,-27.288 22.176,-49.392 49.608,-49.392 v 0 H 209.7 v -38.736 h -23.184 c -27.288,0.216 -49.608,-22.104 -49.608,-49.536 0,-27.288 22.176,-49.464 49.608,-49.464 27.288,0 49.464,22.176 49.464,49.464 v 23.328 h 38.592 v -23.328 c -0.144,-27.288 22.104,-49.464 49.464,-49.464 27.432,0 49.536,22.176 49.536,49.464 0,27.432 -22.104,49.536 -49.536,49.536 z"
   id="path2206" />
		<rect
   x="235.98"
   y="198.89999"
   width="38.664001"
   height="38.664001"
   id="rect2208"
   style="fill:#ffffff" /> 
		<path
   d="m 209.7,149.22 c 0,-12.744 -10.368,-23.112 -23.112,-23.112 -12.96,0 -23.328,10.368 -23.328,23.112 0,12.96 10.368,23.328 23.328,23.328 v 0 H 209.7 Z"
   id="path2210"
   style="fill:#ffffff" />
		<path
   d="m 209.7,286.956 v -23.112 h -23.112 v 0 c -12.96,0 -23.328,10.368 -23.328,23.112 0,12.96 10.368,23.328 23.328,23.328 12.744,0 23.112,-10.368 23.112,-23.328 z"
   id="path2212"
   style="fill:#ffffff" />
		<path
   d="m 300.852,286.956 v 0 c 0,12.96 10.368,23.328 23.112,23.328 12.96,0 23.328,-10.368 23.328,-23.328 0,-12.744 -10.368,-23.112 -23.328,-23.112 h -23.112 z"
   id="path2214"
   style="fill:#ffffff" />
		<path
   d="M 300.852,172.548 V 149.22 c 0,-12.744 10.368,-23.112 23.112,-23.112 12.96,0 23.328,10.368 23.328,23.112 0,12.96 -10.368,23.328 -23.328,23.328 z"
   id="path2216"
   style="fill:#ffffff" />
	</g></svg>
